<?xml version="1.0" standalone="no"?>
<!DOCTYPE svg PUBLIC "-//W3C//DTD SVG 20010904//EN" "http://www.w3.org/TR/2001/REC-SVG-20010904/DTD/svg10.dtd">
<svg
    version="1.0"
    xmlns="http://www.w3.org/2000/svg"
    width="256.000000pt"
    height="256.000000pt"
    viewBox="0 0 256.000000 256.000000"
    preserveAspectRatio="xMidYMid meet"
>
    <style type="text/css"> path { fill: black; } @media (prefers-color-scheme: dark) { path { fill:
        white; } } </style>
    <g transform="translate(0.000000,256.000000) scale(0.100000,-0.100000)">
        <path
            d="M1035 2490 c-373 -77 -690 -319 -857 -655 -91 -183 -128 -343 -128
        -555 0 -212 37 -372 128 -555 170 -343 499 -589 881 -660 109 -20 333 -20 442
        0 382 71 711 317 881 660 91 183 128 343 128 555 0 212 -37 372 -128 555 -170
        343 -499 589 -881 660 -117 21 -349 19 -466 -5z m535 -124 c110 -31 252 -96
        340 -156 82 -56 208 -176 271 -259 68 -90 153 -265 186 -386 26 -93 28 -113
        28 -285 0 -172 -2 -192 -28 -285 -33 -121 -118 -296 -186 -386 -63 -83 -189
        -203 -271 -259 -90 -61 -231 -125 -346 -157 -92 -26 -112 -28 -284 -28 -172 0
        -192 2 -285 28 -121 33 -296 118 -386 186 -83 63 -203 189 -259 271 -61 90
        -125 231 -157 346 -26 92 -28 112 -28 284 0 172 2 192 28 284 53 191 142 349
        276 488 165 174 352 277 601 333 47 11 111 14 235 11 147 -3 183 -7 265 -30z"
        />
        <path
            d="M1222 1678 l3 -441 35 -20 c19 -10 183 -104 363 -209 180 -104 334
        -191 342 -194 8 -4 24 12 41 42 15 26 24 49 19 51 -6 2 -163 93 -350 202
        l-340 197 -3 407 -2 407 -55 0 -55 0 2 -442z"
        />
    </g>
</svg>