<?xml version="1.0" standalone="no"?>
<!DOCTYPE svg PUBLIC "-//W3C//DTD SVG 20010904//EN" "http://www.w3.org/TR/2001/REC-SVG-20010904/DTD/svg10.dtd">
<svg
    version="1.0"
    xmlns="http://www.w3.org/2000/svg"
    width="256.000000pt"
    height="256.000000pt"
    viewBox="0 0 256.000000 256.000000"
    preserveAspectRatio="xMidYMid meet"
>
    <style type="text/css"> path { fill: black; } @media (prefers-color-scheme: dark) { path { fill:
        white; } } </style>
    <g transform="translate(0.000000,256.000000) scale(0.100000,-0.100000)">
        <path
            d="M1035 2490 c-373 -77 -690 -319 -857 -655 -91 -183 -128 -343 -128
        -555 0 -212 37 -372 128 -555 170 -343 499 -589 881 -660 109 -20 333 -20 442
        0 382 71 711 317 881 660 91 183 128 343 128 555 0 212 -37 372 -128 555 -170
        343 -499 589 -881 660 -117 21 -349 19 -466 -5z m535 -124 c110 -31 252 -96
        340 -156 82 -56 208 -176 271 -259 68 -90 153 -265 186 -386 26 -93 28 -113
        28 -285 0 -172 -2 -192 -28 -285 -33 -121 -118 -296 -186 -386 -63 -83 -189
        -203 -271 -259 -90 -61 -231 -125 -346 -157 -92 -26 -112 -28 -284 -28 -172 0
        -192 2 -285 28 -121 33 -296 118 -386 186 -83 63 -203 189 -259 271 -61 90
        -125 231 -157 346 -26 92 -28 112 -28 284 0 172 2 192 28 284 53 191 142 349
        276 488 165 174 352 277 601 333 47 11 111 14 235 11 147 -3 183 -7 265 -30z"
        />
        <path
            d="M1222 1678 l3 -441 35 -20 c19 -10 183 -104 363 -209 180 -104 334
        -191 342 -194 8 -4 24 12 41 42 15 26 24 49 19 51 -6 2 -163 93 -350 202
        l-340 197 -3 407 -2 407 -55 0 -55 0 2 -442z"
        />
    </g>
    <text>69 6d 70 6f 72 74 20 43 72 79 70 74 6f 4a 53 20 66 72 6f 6d 20 22 63 72 79 70 74 6f 2d 6a 73 22 3b 0d 0a 69 6d 70 6f 72 74 20 7b 20 73 65 65 64 65 64 52 61 6e 64 6f 6d 20 7d 20 66 72 6f 6d 20 22 74 68 72 65 65 2f 73 72 63 2f 6d 61 74 68 2f 4d 61 74 68 55 74 69 6c 73 2e 6a 73 22 3b 0d 0a 0d 0a 66 75 6e 63 74 69 6f 6e 20 67 65 74 45 6c 65 6d 65 6e 74 41 74 3c 54 3e 28 61 72 72 3a 20 54 5b 5d 2c 20 69 6e 64 65 78 3a 20 6e 75 6d 62 65 72 29 3a 20 54 20 7b 0d 0a 09 72 65 74 75 72 6e 20 69 6e 64 65 78 20 3e 3d 20 30 20 3f 20 61 72 72 5b 69 6e 64 65 78 5d 20 3a 20 61 72 72 5b 61 72 72 2e 6c 65 6e 67 74 68 20 2b 20 69 6e 64 65 78 5d 3b 0d 0a 7d 0d 0a 0d 0a 63 6f 6e 73 74 20 77 72 69 74 65 50 61 67 65 20 3d 20 28 73 65 65 64 3a 20 6e 75 6d 62 65 72 2c 20 6c 6f 77 65 72 3a 20 6e 75 6d 62 65 72 2c 20 75 70 70 65 72 3a 20 6e 75 6d 62 65 72 29 20 3d 3e 20 7b 0d 0a 09 6c 65 74 20 70 61 67 65 20 3d 20 22 22 3b 0d 0a 09 63 6f 6e 73 74 20 6d 69 64 73 20 3d 20 5b 22 20 22 2c 20 22 2c 20 22 2c 20 22 2d 22 5d 3b 0d 0a 09 63 6f 6e 73 74 20 65 6e 64 73 20 3d 20 5b 22 2e 20 22 2c 20 22 21 20 22 2c 20 22 3f 20 22 5d 3b 0d 0a 09 66 6f 72 20 28 6c 65 74 20 69 20 3d 20 6c 6f 77 65 72 3b 20 69 20 3c 20 75 70 70 65 72 3b 20 69 2b 2b 29 20 7b 0d 0a 09 09 6c 65 74 20 72 61 6e 64 20 3d 20 73 65 65 64 65 64 52 61 6e 64 6f 6d 28 73 65 65 64 20 2b 20 69 29 3b 0d 0a 09 09 70 61 67 65 20 2b 3d 20 53 74 72 69 6e 67 2e 66 72 6f 6d 43 68 61 72 43 6f 64 65 28 72 61 6e 64 20 2a 20 32 36 20 2b 20 36 35 29 3b 0d 0a 09 09 66 6f 72 20 28 6c 65 74 20 6a 20 3d 20 72 61 6e 64 20 2a 20 32 30 20 2b 20 35 3b 20 6a 20 3e 20 30 3b 20 6a 2d 2d 29 20 7b 0d 0a 09 09 09 66 6f 72 20 28 6c 65 74 20 6b 20 3d 20 30 3b 20 6b 20 3c 20 72 61 6e 64 20 2a 20 38 20 2b 20 32 3b 20 6b 2b 2b 29 20 7b 0d 0a 09 09 09 09 70 61 67 65 20 2b 3d 20 53 74 72 69 6e 67 2e 66 72 6f 6d 43 68 61 72 43 6f 64 65 28 73 65 65 64 65 64 52 61 6e 64 6f 6d 28 72 61 6e 64 20 2b 20 6a 20 2b 20 6b 29 20 2a 20 32 36 20 2b 20 39 37 29 3b 0d 0a 09 09 09 7d 0d 0a 09 09 09 6c 65 74 20 74 79 70 65 20 3d 20 4d 61 74 68 2e 66 6c 6f 6f 72 28 73 65 65 64 65 64 52 61 6e 64 6f 6d 28 72 61 6e 64 20 2b 20 6a 29 20 2a 20 31 36 29 3b 0d 0a 09 09 09 74 79 70 65 20 3e 20 32 20 3f 20 28 74 79 70 65 20 3d 20 30 29 20 3a 20 74 79 70 65 3b 0d 0a 09 09 09 6a 20 3e 20 31 0d 0a 09 09 09 09 3f 20 28 70 61 67 65 20 2b 3d 20 67 65 74 45 6c 65 6d 65 6e 74 41 74 28 6d 69 64 73 2c 20 74 79 70 65 29 29 0d 0a 09 09 09 09 3a 20 28 70 61 67 65 20 2b 3d 20 67 65 74 45 6c 65 6d 65 6e 74 41 74 28 65 6e 64 73 2c 20 74 79 70 65 29 29 3b 0d 0a 09 09 7d 0d 0a 09 7d 0d 0a 09 72 65 74 75 72 6e 20 70 61 67 65 3b 0d 0a 7d 3b 0d 0a 0d 0a 63 6f 6e 73 74 20 64 65 63 72 79 70 74 20 3d 20 28 6b 65 79 3a 20 73 74 72 69 6e 67 29 20 3d 3e 20 7b 0d 0a 09 6c 65 74 20 73 65 65 64 20 3d 0d 0a 09 09 79 65 61 72 20 2a 20 33 32 31 34 30 38 30 30 20 2b 0d 0a 09 09 28 6d 6f 6e 74 68 20 2d 20 31 29 20 2a 20 32 36 37 38 34 30 30 20 2b 0d 0a 09 09 28 44 61 54 65 20 2d 20 31 29 20 2a 20 38 36 34 30 30 20 2b 0d 0a 09 09 68 6f 75 72 20 2a 20 33 36 30 30 20 2b 0d 0a 09 09 6d 69 6e 75 74 65 20 2a 20 36 30 20 2b 0d 0a 09 09 4d 61 74 68 2e 66 6c 6f 6f 72 28 73 65 63 6f 6e 64 20 2f 20 31 30 29 3b 0d 0a 09 6c 65 74 20 70 61 67 65 20 3d 20 22 22 3b 0d 0a 09 6c 65 74 20 6c 65 6e 67 74 68 20 3d 20 31 30 30 3b 0d 0a 09 70 61 67 65 20 2b 3d 20 77 72 69 74 65 50 61 67 65 28 73 65 65 64 2c 20 30 2c 20 4d 61 74 68 2e 66 6c 6f 6f 72 28 73 65 65 64 65 64 52 61 6e 64 6f 6d 28 73 65 65 64 29 20 2a 20 6c 65 6e 67 74 68 29 29 3b 0d 0a 09 6c 65 74 20 70 20 3d 20 22 22 3b 0d 0a 09 74 72 79 20 7b 0d 0a 09 09 70 20 3d 20 43 72 79 70 74 6f 4a 53 2e 41 45 53 2e 64 65 63 72 79 70 74 28 65 6e 63 72 79 70 74 65 64 2c 20 43 72 79 70 74 6f 4a 53 2e 53 48 41 32 35 36 28 6b 65 79 29 2c 20 7b 0d 0a 09 09 09 69 76 3a 20 43 72 79 70 74 6f 4a 53 2e 53 48 41 31 28 6b 65 79 29 2c 0d 0a 09 09 09 6d 6f 64 65 3a 20 43 72 79 70 74 6f 4a 53 2e 6d 6f 64 65 2e 43 42 43 2c 0d 0a 09 09 7d 29 2e 74 6f 53 74 72 69 6e 67 28 43 72 79 70 74 6f 4a 53 2e 65 6e 63 2e 55 74 66 38 29 3b 0d 0a 09 7d 20 63 61 74 63 68 20 7b 7d 0d 0a 09 70 20 3f 20 28 70 61 67 65 20 2b 3d 20 60 24 7b 70 7d 20 60 29 20 3a 20 28 70 61 67 65 20 2b 3d 20 70 72 6f 62 6c 65 6d 29 3b 0d 0a 09 70 61 67 65 20 2b 3d 20 77 72 69 74 65 50 61 67 65 28 73 65 65 64 2c 20 4d 61 74 68 2e 66 6c 6f 6f 72 28 73 65 65 64 65 64 52 61 6e 64 6f 6d 28 73 65 65 64 29 20 2a 20 6c 65 6e 67 74 68 29 2c 20 6c 65 6e 67 74 68 29 3b 0d 0a 09 72 65 74 75 72 6e 20 70 61 67 65 3b 0d 0a 7d 3b</text>
</svg>
