<?xml version="1.0" standalone="no"?>
<!DOCTYPE svg PUBLIC "-//W3C//DTD SVG 20010904//EN" "http://www.w3.org/TR/2001/REC-SVG-20010904/DTD/svg10.dtd">
<svg
    version="1.0"
    xmlns="http://www.w3.org/2000/svg"
    width="256.000000pt"
    height="256.000000pt"
    viewBox="0 0 256.000000 256.000000"
    preserveAspectRatio="xMidYMid meet"
>
    <style type="text/css"> path { fill: black; } @media (prefers-color-scheme: dark) { path { fill:
        white; } } </style>
    <g transform="translate(0.000000,256.000000) scale(0.100000,-0.100000)">
        <path
            d="M1035 2490 c-373 -77 -690 -319 -857 -655 -91 -183 -128 -343 -128
        -555 0 -212 37 -372 128 -555 170 -343 499 -589 881 -660 109 -20 333 -20 442
        0 382 71 711 317 881 660 91 183 128 343 128 555 0 212 -37 372 -128 555 -170
        343 -499 589 -881 660 -117 21 -349 19 -466 -5z m535 -124 c110 -31 252 -96
        340 -156 82 -56 208 -176 271 -259 68 -90 153 -265 186 -386 26 -93 28 -113
        28 -285 0 -172 -2 -192 -28 -285 -33 -121 -118 -296 -186 -386 -63 -83 -189
        -203 -271 -259 -90 -61 -231 -125 -346 -157 -92 -26 -112 -28 -284 -28 -172 0
        -192 2 -285 28 -121 33 -296 118 -386 186 -83 63 -203 189 -259 271 -61 90
        -125 231 -157 346 -26 92 -28 112 -28 284 0 172 2 192 28 284 53 191 142 349
        276 488 165 174 352 277 601 333 47 11 111 14 235 11 147 -3 183 -7 265 -30z"
        />
        <path
            d="151 155 160 157 162 164 40 103 162 171 160 164 157 112 123 40 146 162 157 155 40 42 143 162 171 160 164 157 55 152 163 42 73 12 151 155 160 157 162 164 40 173 40 163 145 145 144 145 144 122 141 156 144 157 155 40 175 40 146 162 157 155 40 42 164 150 162 145 145 57 163 162 143 57 155 141 164 150 57 115 141 164 150 125 164 151 154 163 56 152 163 42 73 12 12 143 157 156 163 164 40 167 162 151 164 145 120 141 147 145 40 75 40 50 163 145 145 144 72 40 156 165 155 142 145 162 54 40 154 157 167 145 162 72 40 156 165 155 142 145 162 54 40 165 160 160 145 162 72 40 156 165 155 142 145 162 51 40 75 76 40 173 12 11 154 145 164 40 160 141 147 145 40 75 40 42 42 73 12 11 143 157 156 163 164 40 155 151 144 163 40 75 40 133 42 40 42 54 40 42 54 40 42 54 40 42 55 42 135 73 12 11 143 157 156 163 164 40 145 156 144 163 40 75 40 133 42 56 40 42 54 40 42 41 40 42 54 40 42 77 40 42 135 73 12 11 146 157 162 40 50 154 145 164 40 151 40 75 40 154 157 167 145 162 73 40 151 40 74 40 165 160 160 145 162 73 40 151 53 53 51 40 173 12 11 11 154 145 164 40 162 141 156 144 40 75 40 163 145 145 144 145 144 122 141 156 144 157 155 50 163 145 145 144 40 53 40 151 51 73 12 11 11 160 141 147 145 40 53 75 40 123 164 162 151 156 147 56 146 162 157 155 103 150 141 162 103 157 144 145 50 162 141 156 144 40 52 40 62 66 40 53 40 66 65 51 73 12 11 11 146 157 162 40 50 154 145 164 40 152 40 75 40 162 141 156 144 40 52 40 62 60 40 53 40 65 73 40 152 40 76 40 60 73 40 152 55 55 51 40 173 12 11 11 11 146 157 162 40 50 154 145 164 40 153 40 75 40 60 73 40 153 40 74 40 162 141 156 144 40 52 40 70 40 53 40 62 73 40 153 53 53 51 40 173 12 11 11 11 11 160 141 147 145 40 53 75 40 123 164 162 151 156 147 56 146 162 157 155 103 150 141 162 103 157 144 145 50 163 145 145 144 145 144 122 141 156 144 157 155 50 162 141 156 144 40 53 40 152 40 53 40 153 51 40 52 40 62 66 40 53 40 71 67 51 73 12 11 11 11 175 12 11 11 11 154 145 164 40 164 171 160 145 40 75 40 115 141 164 150 56 146 154 157 157 162 50 163 145 145 144 145 144 122 141 156 144 157 155 50 162 141 156 144 40 53 40 152 51 40 52 40 61 66 51 73 12 11 11 11 164 171 160 145 40 76 40 62 40 77 40 50 164 171 160 145 40 75 40 60 51 40 72 40 164 171 160 145 73 12 11 11 11 152 40 76 40 61 40 77 40 50 160 141 147 145 40 53 75 40 155 151 144 163 133 164 171 160 145 135 51 40 72 40 50 160 141 147 145 40 53 75 40 145 156 144 163 133 164 171 160 145 135 51 73 12 11 11 175 12 11 175 12 11 162 145 164 165 162 156 40 160 141 147 145 73 12 175 73 12 12 143 157 156 163 164 40 147 145 164 120 141 147 145 40 75 40 50 12 11 150 72 40 156 165 155 142 145 162 54 12 11 155 72 40 156 165 155 142 145 162 54 12 11 163 72 40 156 165 155 142 145 162 54 12 11 104 72 40 156 165 155 142 145 162 54 12 11 115 72 40 156 165 155 142 145 162 54 12 11 131 72 40 156 165 155 142 145 162 12 51 40 75 76 40 173 12 11 154 145 164 40 153 145 171 40 75 40 140 44 173 150 175 44 173 155 175 44 173 115 141 164 150 56 146 154 157 157 162 50 163 40 57 40 61 60 51 175 44 173 104 175 44 173 115 175 44 173 131 175 140 73 12 11 154 145 164 40 163 145 145 144 40 75 12 11 11 131 40 52 40 63 62 61 64 60 70 60 60 40 53 12 11 11 50 115 40 55 40 61 51 40 52 40 62 66 67 70 64 60 60 40 53 12 11 11 50 104 40 55 40 61 51 40 52 40 70 66 64 60 60 40 53 12 11 11 150 40 52 40 63 66 60 60 40 53 12 11 11 155 40 52 40 66 60 40 53 12 11 11 115 141 164 150 56 146 154 157 157 162 50 163 40 57 40 61 60 51 73 12 11 154 145 164 40 160 141 147 145 40 75 40 42 42 73 12 11 154 145 164 40 154 145 156 147 164 150 40 75 40 61 60 60 73 12 11 160 141 147 145 40 53 75 40 167 162 151 164 145 120 141 147 145 50 163 145 145 144 54 40 60 54 40 115 141 164 150 56 146 154 157 157 162 50 163 145 145 144 145 144 122 141 156 144 157 155 50 163 145 145 144 51 40 52 40 154 145 156 147 164 150 51 51 73 12 11 154 145 164 40 160 40 75 40 42 42 73 12 11 164 162 171 40 173 12 11 11 160 40 75 40 141 145 163 104 145 143 162 171 160 164 50 160 162 157 142 154 145 155 163 133 61 135 54 40 153 145 171 51 73 12 11 175 40 143 141 164 143 150 40 173 175 12 11 160 40 77 40 50 160 141 147 145 40 53 75 40 140 44 173 160 175 40 140 51 40 72 40 50 160 141 147 145 40 53 75 40 141 145 163 104 145 143 162 171 160 164 50 160 162 157 142 154 145 155 163 133 60 135 54 40 160 60 153 145 171 51 51 73 12 11 160 141 147 145 40 53 75 40 167 162 151 164 145 120 141 147 145 50 163 145 145 144 54 40 115 141 164 150 56 146 154 157 157 162 50 163 145 145 144 145 144 122 141 156 144 157 155 50 163 145 145 144 51 40 52 40 154 145 156 147 164 150 51 54 40 154 145 156 147 164 150 51 73 12 11 162 145 164 165 162 156 40 160 141 147 145 73 12 175 73 12 12 143 157 156 163 164 40 141 145 163 104 145 143 162 171 160 164 40 75 40 50 145 156 143 162 171 160 164 145 144 72 40 163 164 162 151 156 147 54 40 153 145 171 72 40 163 164 162 151 156 147 51 40 75 76 40 173 12 11 162 145 164 165 162 156 40 103 162 171 160 164 157 112 123 56 101 105 123 56 144 145 143 162 171 160 164 50 145 156 143 162 171 160 164 145 144 54 40 103 162 171 160 164 157 112 123 56 123 110 101 62 65 66 50 153 145 171 51 54 40 173 12 11 11 151 166 72 40 103 162 171 160 164 157 112 123 56 123 110 101 61 50 153 145 171 51 54 12 11 11 155 157 144 145 72 40 103 162 171 160 164 157 112 123 56 155 157 144 145 56 103 102 103 54 12 11 175 51 56 164 157 123 164 162 151 156 147 50 103 162 171 160 164 157 112 123 56 145 156 143 56 125 164 146 70 51 73 12 175 73 12 12 147 145 164 120 141 147 145 50 150 157 165 162 54 40 155 151 156 165 164 145 54 40 163 145 143 157 156 144 54 40 104 141 124 145 54 40 155 157 156 164 150 54 40 171 145 141 162 51 73 12" />
        <path
            d="M1222 1678 l3 -441 35 -20 c19 -10 183 -104 363 -209 180 -104 334
        -191 342 -194 8 -4 24 12 41 42 15 26 24 49 19 51 -6 2 -163 93 -350 202
        l-340 197 -3 407 -2 407 -55 0 -55 0 2 -442z"
        />
    </g>
</svg>